<?xml version="1.0" encoding="utf-8"?>
<!-- Generator: Adobe Illustrator 17.1.0, SVG Export Plug-In . SVG Version: 6.00 Build 0)  -->
<!DOCTYPE svg PUBLIC "-//W3C//DTD SVG 1.1//EN" "http://www.w3.org/Graphics/SVG/1.1/DTD/svg11.dtd">
<svg version="1.1" id="Capa_1" xmlns="http://www.w3.org/2000/svg" xmlns:xlink="http://www.w3.org/1999/xlink" x="0px" y="0px"
	 viewBox="394 263.5 223.8 35.8" enable-background="new 394 263.5 223.8 35.8" xml:space="preserve">
<g>
	<path fill="#2F3030" d="M597.3,284.8c1.7,0.5,2.8,1.1,2.8,2.1c0,1.3-1.3,2.3-3.7,2.3c-2.7,0-5.5-1.1-7.3-2.4l-1.4,5.4
		c1.5,0.9,5,2.1,8.6,2.1c6,0,9.9-3.2,9.9-7.8c0-3.3-2-5.3-6.4-6.6l-4.2-1.3c-1.5-0.4-2.2-0.8-2.2-1.9c0-1.2,1.1-2,3.5-2
		c2.5,0,5.4,0.9,7.2,2.1l1.7-5.3c-1.9-1-5.3-1.9-8.7-1.9c-6.5,0-9.8,3.3-9.8,7.5c0,3.3,1.8,5.5,5.5,6.5L597.3,284.8z M583,293.9
		v-5.2h-13.6v-4.6h11v-5h-11v-4.1H583V270h-19.3v24H583z M558.9,293.9v-5.2H547V270h-5.9v24H558.9z M534.1,286.1v-5.2h-11v-5.8H536
		V270h-18.6v24h5.6v-7.8H534.1z M510.2,286.1v-5.2h-11v-5.8h12.9V270h-18.6v24h5.6v-7.8H510.2z M477,275.8l3.5,9.4h-7.1L477,275.8z
		 M464.3,293.9h6l1.7-4.4h10l1.6,4.4h6l-9.1-24h-6.9L464.3,293.9z M445.6,281.5v-6.9h5.3c2.6,0,4.2,1.2,4.2,3.4v0.1
		c0,2-1.5,3.4-4.1,3.4H445.6z M440.3,293.9h5.3v-7.7h4.2l5.2,7.7h6.2l-5.9-8.6c3.1-1.1,5.2-3.6,5.2-7.5v-0.1c0-2.3-0.7-4.2-2.1-5.5
		c-1.6-1.6-4-2.5-7-2.5h-11.1V293.9z"/>
	<g>
		<path fill="#2F3030" d="M609.9,273.1c0-0.3,0-0.6,0.1-0.9c0.1-0.3,0.2-0.6,0.3-0.8c0.1-0.3,0.3-0.5,0.5-0.7
			c0.2-0.2,0.4-0.4,0.7-0.5c0.3-0.1,0.5-0.3,0.8-0.3c0.3-0.1,0.6-0.1,0.9-0.1c0.3,0,0.6,0,0.9,0.1c0.3,0.1,0.6,0.2,0.8,0.3
			c0.3,0.1,0.5,0.3,0.7,0.5c0.2,0.2,0.4,0.4,0.5,0.7c0.1,0.3,0.3,0.5,0.3,0.8c0.1,0.3,0.1,0.6,0.1,0.9c0,0.3,0,0.6-0.1,0.9
			c-0.1,0.3-0.2,0.6-0.3,0.8c-0.1,0.3-0.3,0.5-0.5,0.7c-0.2,0.2-0.4,0.4-0.7,0.5c-0.3,0.1-0.5,0.3-0.8,0.3c-0.3,0.1-0.6,0.1-0.9,0.1
			c-0.3,0-0.6,0-0.9-0.1c-0.3-0.1-0.6-0.2-0.8-0.3c-0.3-0.1-0.5-0.3-0.7-0.5c-0.2-0.2-0.4-0.4-0.5-0.7c-0.1-0.3-0.3-0.5-0.3-0.8
			C609.9,273.7,609.9,273.4,609.9,273.1z M610.5,273.1c0,0.3,0,0.5,0.1,0.8c0.1,0.2,0.2,0.5,0.3,0.7c0.1,0.2,0.3,0.4,0.4,0.6
			c0.2,0.2,0.4,0.3,0.6,0.5c0.2,0.1,0.4,0.2,0.7,0.3c0.2,0.1,0.5,0.1,0.8,0.1c0.4,0,0.8-0.1,1.1-0.2c0.3-0.2,0.7-0.4,0.9-0.6
			c0.3-0.3,0.5-0.6,0.6-0.9c0.1-0.4,0.2-0.7,0.2-1.1c0-0.3,0-0.5-0.1-0.8s-0.2-0.5-0.3-0.7c-0.1-0.2-0.3-0.4-0.4-0.6
			c-0.2-0.2-0.4-0.3-0.6-0.5c-0.2-0.1-0.4-0.2-0.7-0.3c-0.2-0.1-0.5-0.1-0.8-0.1c-0.4,0-0.8,0.1-1.1,0.2c-0.3,0.2-0.6,0.4-0.9,0.6
			c-0.3,0.3-0.5,0.6-0.6,0.9C610.6,272.3,610.5,272.7,610.5,273.1z M612.8,273.4v1.3h-0.6v-3.2h1c0.4,0,0.7,0.1,0.9,0.2
			c0.2,0.2,0.3,0.4,0.3,0.7c0,0.2-0.1,0.4-0.2,0.6c-0.1,0.2-0.3,0.3-0.6,0.3c0,0,0.1,0.1,0.1,0.1s0.1,0.1,0.1,0.1l0.8,1.2h-0.5
			c-0.1,0-0.1,0-0.2-0.1l-0.7-1.1c0,0,0-0.1-0.1-0.1c0,0-0.1,0-0.1,0H612.8z M612.8,273h0.4c0.1,0,0.2,0,0.3,0
			c0.1,0,0.2-0.1,0.2-0.1c0.1,0,0.1-0.1,0.1-0.2c0-0.1,0-0.2,0-0.2c0-0.1,0-0.2,0-0.2s-0.1-0.1-0.1-0.2c-0.1,0-0.1-0.1-0.2-0.1
			c-0.1,0-0.2,0-0.3,0h-0.5V273z"/>
	</g>
	<path fill-rule="evenodd" clip-rule="evenodd" fill="#2F3030" d="M411.8,264.5c-9.3,0-16.8,7.5-16.8,16.8c0,9.3,7.5,16.8,16.8,16.8
		c9.3,0,16.8-7.5,16.8-16.8C428.7,272,421.1,264.5,411.8,264.5 M409.9,274.7c2-0.6,4-1.3,5.9-2c0.7-0.3,1.4,0.2,1.5,0.9
		c0.2,1.4,0.3,2.8,0.5,4.2c0.2,1.9,0.2,2.1,0.4,4c-4.1,1.7-7.3,2.5-11.6,3.2c-0.8-1.7-0.9-1.8-1.7-3.5c-0.6-1.3-1.3-2.5-1.9-3.8
		c-0.3-0.6,0.1-1.4,0.8-1.6C405.9,275.7,407.9,275.2,409.9,274.7 M422.1,284.8c-2.8,1.2-5.6,2.3-8.4,3.1c-2.9,0.8-5.8,1.4-8.8,1.9
		c-0.3,0.1-0.6-0.2-0.7-0.5c0-0.1-0.2-0.9-0.3-1c-0.1-0.3,0.1-0.6,0.4-0.6c3-0.5,5.9-1.1,8.8-1.9c2.9-0.8,5.7-1.9,8.4-3.1
		c0.3-0.1,0.6,0,0.7,0.3c0,0.1,0.2,0.9,0.3,1C422.6,284.3,422.4,284.7,422.1,284.8"/>
</g>
</svg>
